<svg width="56" height="56" viewBox="0 0 56 56" fill="none" xmlns="http://www.w3.org/2000/svg">
<title>Empty avatar dark</title>
<circle cx="28" cy="28" r="28" fill="#363A3F"/>
<path d="M24.483 29.8314H31.5191C38.0572 29.8314 43.375 35.068 43.375 41.5062V42.1991C43.375 45.5644 38.1421 45.5644 31.5191 45.5644H24.483C18.1204 45.5644 12.6258 45.5644 12.6258 42.1991V41.5062C12.6258 35.0693 17.9449 29.8314 24.483 29.8314ZM28.3531 28.9405C23.1752 28.9405 18.9627 24.791 18.9627 19.6881C18.9627 14.5852 23.1752 10.4346 28.3531 10.4346C33.531 10.4346 37.7429 14.5871 37.7429 19.6881C37.7429 24.7892 33.5304 28.9405 28.3531 28.9405Z" fill="#1D1D21" fill-opacity="0.7"/>
</svg>
